<svg width="458" height="464" viewBox="0 0 458 464" fill="none" xmlns="http://www.w3.org/2000/svg">
<g clip-path="url(#clip0_249_1186)">
<g clip-path="url(#clip1_249_1186)">
<path d="M0.652344 423.74H457.258" stroke="#160037" stroke-width="0.652293" stroke-linecap="round" stroke-linejoin="round"/>
<path d="M352.049 269.712V269.829C352.049 270.02 352.092 270.221 352.177 270.434C352.652 272.76 353.006 275.11 353.238 277.473C353.441 279.501 353.6 281.816 353.642 284.396C353.743 290.358 353.334 296.319 352.421 302.212C352.188 303.762 351.912 305.397 351.582 307.032C351.062 309.729 350.425 312.553 349.64 315.473C349.289 316.832 348.886 318.223 348.461 319.625L347.962 321.334C347.771 322.024 347.58 322.714 347.399 323.458C346.179 328.174 345.204 332.952 344.479 337.77C343.577 343.769 343.014 349.725 342.706 355.363C342.292 362.88 342.313 369.824 342.494 375.536C342.489 375.632 342.489 375.727 342.494 375.823C342.685 381.63 343.046 386.185 343.29 388.776C343.428 390.295 343.524 391.155 343.534 391.208" stroke="#160037" stroke-width="0.652293" stroke-linecap="round" stroke-linejoin="round"/>
<path d="M352.082 269.861C350.492 268.448 348.577 267.452 346.508 266.962L352.082 269.861Z" fill="white"/>
<path d="M352.082 269.861C350.492 268.448 348.577 267.452 346.508 266.962" stroke="#160037" stroke-width="0.652293" stroke-linecap="round" stroke-linejoin="round"/>
<path d="M353.27 277.506L356.094 274.947" stroke="#160037" stroke-width="0.652293" stroke-linecap="round" stroke-linejoin="round"/>
<path d="M349.67 315.484C349.522 314.739 349.301 314.01 349.012 313.308C348.594 312.277 348.024 311.315 347.324 310.451C346.801 309.802 346.206 309.215 345.551 308.699" stroke="#160037" stroke-width="0.652293" stroke-linecap="round" stroke-linejoin="round"/>
<path d="M347.41 323.448C347.811 322.456 348.41 321.557 349.171 320.807C349.933 320.056 350.841 319.47 351.838 319.084" stroke="#160037" stroke-width="0.652293" stroke-linecap="round" stroke-linejoin="round"/>
<path d="M342.504 362.945C343.449 361.798 344.161 357.455 344.543 355.119C344.638 354.567 344.713 354.058 344.787 353.75" fill="white"/>
<path d="M342.504 362.945C343.449 361.798 344.161 357.455 344.543 355.119C344.638 354.567 344.713 354.058 344.787 353.75" stroke="#160037" stroke-width="0.652293" stroke-linecap="round" stroke-linejoin="round"/>
<path d="M335.23 370.822C335.545 370.791 335.861 370.791 336.176 370.822C337.566 370.958 338.894 371.469 340.016 372.302C341.138 373.134 342.013 374.256 342.546 375.548" fill="white"/>
<path d="M335.23 370.822C335.545 370.791 335.861 370.791 336.176 370.822C337.566 370.958 338.894 371.469 340.016 372.302C341.138 373.134 342.013 374.256 342.546 375.548" stroke="#160037" stroke-width="0.652293" stroke-linecap="round" stroke-linejoin="round"/>
<path d="M351.614 307.118C351.614 307.118 352.113 289.885 342.652 283.632" stroke="#160037" stroke-width="0.652293" stroke-linecap="round" stroke-linejoin="round"/>
<path d="M352.421 344.056C353.664 348.08 344.989 355.736 344.989 355.736C344.989 355.736 333.533 354.302 332.248 350.289C330.963 346.275 333.904 339.671 339.468 337.972C345.031 336.274 351.221 340.032 352.421 344.056Z" fill="#043D94"/>
<path d="M362.07 295.289C361.008 299.536 352.769 302.584 352.769 302.584C352.769 302.584 347.11 295.969 348.172 291.701C349.234 287.432 353.81 282.74 357.653 283.727C361.497 284.714 363.174 291.021 362.07 295.289Z" fill="#043D94"/>
<path d="M329.169 359.069C334.319 361.065 337.472 370.175 337.472 370.175C337.472 370.175 328.978 374.751 323.839 372.745C318.701 370.738 313.222 365.089 314.709 361.32C316.195 357.551 324.02 357.02 329.169 359.069Z" fill="#043D94"/>
<path d="M340.454 308.954C341.496 309.83 342.691 310.507 343.979 310.95C344.625 311.159 345.316 311.186 345.977 311.029C346.639 310.872 347.243 310.536 347.727 310.058C348.788 308.795 348.534 306.873 347.843 305.291C346.463 302.265 341.388 297.115 337.491 298.591C331.864 300.747 337.948 307.117 340.454 308.954Z" fill="#043D94"/>
<path d="M351.976 316.673C351.232 317.586 350.447 318.744 350.86 319.858C351.091 320.327 351.471 320.706 351.939 320.936C352.408 321.167 352.939 321.235 353.451 321.133C354.47 320.891 355.421 320.423 356.233 319.763C358.219 318.383 362.296 315.516 359.695 312.787C357.093 310.058 353.483 314.751 351.976 316.673Z" fill="#043D94"/>
<path d="M335.357 278.164C334.929 278.189 334.519 278.348 334.185 278.619C333.852 278.889 333.612 279.257 333.499 279.671C333.33 280.659 334.147 281.519 334.933 282.124C336.907 283.653 342.843 287.751 344.16 283.791C345.412 280.054 337.969 277.877 335.357 278.164Z" fill="#043D94"/>
<path d="M346.284 265.146C345.062 265.263 343.841 264.817 342.61 264.891C341.378 264.966 340.03 265.953 340.296 267.164C340.561 268.374 341.93 268.639 343.056 268.703C344.993 268.827 346.939 268.695 348.843 268.311C349.293 268.268 349.711 268.055 350.01 267.716C350.509 266.983 349.724 266.006 348.874 265.752C348.002 265.635 347.145 265.429 346.316 265.136L346.284 265.146Z" fill="#043D94"/>
<path d="M358.241 273.566C359.462 273.566 360.651 273.078 361.882 273.067C363.114 273.057 364.537 273.959 364.335 275.191C364.134 276.423 362.817 276.773 361.691 276.911C359.768 277.166 357.818 277.166 355.894 276.911C355.438 276.9 355.005 276.714 354.684 276.391C354.142 275.701 354.864 274.671 355.682 274.352C356.547 274.191 357.392 273.93 358.198 273.577L358.241 273.566Z" fill="#043D94"/>
<path d="M357.03 364.048C357.312 363.755 357.687 363.571 358.092 363.528C358.364 363.554 358.62 363.674 358.814 363.868C359.007 364.062 359.127 364.317 359.154 364.59C359.212 365.115 359.147 365.646 358.962 366.14C358.124 368.933 348.78 389.095 346.625 385.475C345.362 383.351 348.483 376.248 349.406 374.242C351.17 370.326 353.772 366.846 357.03 364.048Z" fill="#043D94"/>
<path d="M352.474 271.018C352.474 271.018 351.912 266.124 353.09 265.71" stroke="#160037" stroke-width="0.652293" stroke-linecap="round" stroke-linejoin="round"/>
<path d="M351.434 265.912C352.036 264.183 353.075 262.64 354.449 261.431C355.925 260.369 358.292 260.284 359.365 261.76C360.565 263.405 359.365 265.901 357.528 266.782C355.692 267.664 353.526 267.398 351.508 267.111C351.508 266.814 351.508 266.517 351.508 266.219L351.434 265.912Z" fill="#043D94"/>
<path d="M356.464 423.497C346.455 425.185 336.234 425.185 326.225 423.497L314.461 388.788H368.228L356.464 423.497Z" fill="white" stroke="#160037" stroke-width="0.652293" stroke-linecap="round" stroke-linejoin="round"/>
<path d="M151.274 172.731V172.848C151.316 173.039 151.359 173.241 151.401 173.454C151.882 175.779 152.237 178.129 152.463 180.493C152.665 182.521 152.813 184.835 152.867 187.415C152.976 193.363 152.578 199.309 151.678 205.189C151.443 206.739 151.168 208.374 150.839 210.009C150.318 212.707 149.671 215.53 148.896 218.45C148.535 219.809 148.142 221.2 147.717 222.602C147.547 223.175 147.377 223.738 147.218 224.311C147.059 224.884 146.825 225.692 146.645 226.435" stroke="#160037" stroke-width="0.652293" stroke-linecap="round" stroke-linejoin="round"/>
<path d="M151.292 172.881C150.53 172.214 149.696 171.633 148.807 171.15C147.826 170.633 146.785 170.241 145.707 169.982" fill="white"/>
<path d="M151.292 172.881C150.53 172.214 149.696 171.633 148.807 171.15C147.826 170.633 146.785 170.241 145.707 169.982" stroke="#160037" stroke-width="0.652293" stroke-linecap="round" stroke-linejoin="round"/>
<path d="M152.484 180.526L155.319 177.967" stroke="#160037" stroke-width="0.652293" stroke-linecap="round" stroke-linejoin="round"/>
<path d="M148.892 218.504C148.741 217.759 148.516 217.03 148.223 216.328C147.805 215.298 147.236 214.335 146.535 213.472C146.012 212.823 145.417 212.235 144.762 211.72" stroke="#160037" stroke-width="0.652293" stroke-linecap="round" stroke-linejoin="round"/>
<path d="M146.633 226.424C147.029 225.432 147.626 224.532 148.386 223.781C149.146 223.031 150.053 222.445 151.049 222.061" stroke="#160037" stroke-width="0.652293" stroke-linecap="round" stroke-linejoin="round"/>
<path d="M141.715 265.964C142.659 264.818 143.381 260.475 143.764 258.139C143.848 257.587 143.934 257.077 143.997 256.77" fill="white"/>
<path d="M141.715 265.964C142.659 264.818 143.381 260.475 143.764 258.139C143.848 257.587 143.934 257.077 143.997 256.77" stroke="#160037" stroke-width="0.652293" stroke-linecap="round" stroke-linejoin="round"/>
<path d="M134.445 273.8C134.763 273.769 135.083 273.769 135.401 273.8C136.79 273.939 138.116 274.451 139.238 275.283C140.36 276.115 141.235 277.235 141.771 278.525" fill="white"/>
<path d="M134.445 273.8C134.763 273.769 135.083 273.769 135.401 273.8C136.79 273.939 138.116 274.451 139.238 275.283C140.36 276.115 141.235 277.235 141.771 278.525" stroke="#160037" stroke-width="0.652293" stroke-linecap="round" stroke-linejoin="round"/>
<path d="M150.828 210.094C150.828 210.094 151.338 192.863 141.867 186.608" stroke="#160037" stroke-width="0.652293" stroke-linecap="round" stroke-linejoin="round"/>
<path d="M151.687 247.076C152.918 251.1 144.255 258.755 144.255 258.755C144.255 258.755 132.787 257.322 131.513 253.309C130.239 249.295 133.181 242.691 138.734 240.992C144.287 239.294 150.444 243.063 151.687 247.076Z" fill="#043D94"/>
<path d="M161.307 198.31C160.245 202.557 152.006 205.604 152.006 205.604C152.006 205.604 146.283 198.99 147.388 194.721C148.491 190.453 153.015 185.76 156.858 186.747C160.702 187.735 162.369 194.042 161.307 198.31Z" fill="#043D94"/>
<path d="M128.393 262.088C133.542 264.095 136.707 273.194 136.707 273.194C136.707 273.194 128.212 277.77 123.063 275.764C117.913 273.757 112.445 268.108 113.943 264.339C115.44 260.57 123.233 260.082 128.393 262.088Z" fill="#043D94"/>
<path d="M139.678 211.974C140.716 212.851 141.908 213.527 143.192 213.971C143.839 214.18 144.53 214.207 145.191 214.05C145.852 213.893 146.458 213.557 146.94 213.079C148.002 211.815 147.747 209.893 147.057 208.312C145.677 205.286 140.612 200.136 136.705 201.612C131.088 203.746 137.162 210.116 139.678 211.974Z" fill="#043D94"/>
<path d="M151.186 219.703C150.453 220.617 149.667 221.827 150.071 222.888C150.302 223.357 150.681 223.736 151.149 223.966C151.618 224.197 152.15 224.266 152.661 224.163C153.681 223.923 154.632 223.455 155.443 222.793C157.429 221.423 161.505 218.546 158.904 215.818C156.303 213.089 152.746 217.771 151.186 219.703Z" fill="#043D94"/>
<path d="M134.572 181.183C134.144 181.21 133.734 181.369 133.402 181.64C133.068 181.91 132.828 182.277 132.714 182.691C132.544 183.678 133.362 184.539 134.158 185.143C136.133 186.672 142.058 190.771 143.384 186.811C144.627 183.073 137.195 180.897 134.572 181.183Z" fill="#043D94"/>
<path d="M145.498 168.167C144.277 168.284 143.056 167.837 141.835 167.912C140.614 167.986 139.244 168.974 139.52 170.184C139.796 171.394 141.145 171.66 142.281 171.723C144.215 171.848 146.157 171.716 148.057 171.33C148.511 171.288 148.931 171.076 149.235 170.736C149.724 170.004 148.938 169.026 148.099 168.771C147.224 168.656 146.363 168.45 145.53 168.156L145.498 168.167Z" fill="#043D94"/>
<path d="M157.451 176.586C158.683 176.586 159.872 176.097 161.093 176.087C162.314 176.077 163.748 176.979 163.557 178.211C163.366 179.442 162.028 179.793 160.902 179.93C158.978 180.185 157.029 180.185 155.105 179.93C154.65 179.92 154.216 179.734 153.895 179.41C153.353 178.72 154.075 177.69 154.903 177.372C155.768 177.207 156.612 176.947 157.42 176.596L157.451 176.586Z" fill="#043D94"/>
<path d="M156.242 267.068C156.524 266.776 156.899 266.592 157.303 266.548C157.574 266.58 157.826 266.702 158.019 266.894C158.212 267.087 158.334 267.339 158.365 267.61C158.42 268.135 158.351 268.666 158.163 269.16C157.335 271.952 147.981 292.115 145.836 288.494C144.562 286.371 147.684 279.268 148.607 277.261C150.374 273.344 152.98 269.864 156.242 267.068Z" fill="#043D94"/>
<path d="M151.688 174.059C151.688 174.059 151.125 169.164 152.314 168.75" stroke="#160037" stroke-width="0.652293" stroke-linecap="round" stroke-linejoin="round"/>
<path d="M150.688 168.931C151.282 167.199 152.321 165.653 153.703 164.45C155.179 163.388 157.536 163.304 158.608 164.78C159.808 166.426 158.608 168.921 156.771 169.802C154.935 170.683 152.779 170.418 150.762 170.131C150.762 169.834 150.762 169.536 150.762 169.239L150.688 168.931Z" fill="#043D94"/>
<path d="M16.75 290.097V185.186" stroke="#160037" stroke-width="0.652293" stroke-linecap="round" stroke-linejoin="round"/>
<path d="M344.3 290.098H331.336" stroke="#160037" stroke-width="0.652293" stroke-linecap="round" stroke-linejoin="round"/>
<path d="M445.96 290.098H419.555" stroke="#160037" stroke-width="0.652293" stroke-linecap="round" stroke-linejoin="round"/>
<path d="M330.145 130.719H376.935V86.1465" stroke="#160037" stroke-width="0.652293" stroke-linecap="round" stroke-linejoin="round"/>
<path d="M57.4258 117.106H107.137V153.365H161.626" stroke="#160037" stroke-width="0.652293" stroke-linecap="round" stroke-linejoin="round"/>
<path d="M28.0977 239.898V159.778" stroke="#160037" stroke-width="0.652293" stroke-linecap="round" stroke-linejoin="round"/>
<path d="M50.3086 125.006V187.798" stroke="#160037" stroke-width="0.652293" stroke-linecap="round" stroke-linejoin="round"/>
<path d="M72.5117 125.006V180.515" stroke="#160037" stroke-width="0.652293" stroke-linecap="round" stroke-linejoin="round"/>
<path d="M94.7148 125.006V222.103" stroke="#160037" stroke-width="0.652293" stroke-linecap="round" stroke-linejoin="round"/>
<path d="M201.066 111.236V47.3926H291.453V111.236" stroke="#160037" stroke-width="0.652293" stroke-linecap="round" stroke-linejoin="round"/>
<path d="M207.695 79.1072V54.9736H224.407" stroke="#160037" stroke-width="0.652293" stroke-linecap="round" stroke-linejoin="round"/>
<path d="M228.078 79.1072V54.9736H244.79" stroke="#160037" stroke-width="0.652293" stroke-linecap="round" stroke-linejoin="round"/>
<path d="M248.465 79.1072V54.9736H265.177" stroke="#160037" stroke-width="0.652293" stroke-linecap="round" stroke-linejoin="round"/>
<path d="M268.852 79.1072V54.9736H285.564" stroke="#160037" stroke-width="0.652293" stroke-linecap="round" stroke-linejoin="round"/>
<path d="M207.695 111.235V87.1016H224.407" stroke="#160037" stroke-width="0.652293" stroke-linecap="round" stroke-linejoin="round"/>
<path d="M228.078 111.235V87.1016H244.79" stroke="#160037" stroke-width="0.652293" stroke-linecap="round" stroke-linejoin="round"/>
<path d="M248.465 111.235V87.1016H265.177" stroke="#160037" stroke-width="0.652293" stroke-linecap="round" stroke-linejoin="round"/>
<path d="M268.852 111.235V87.1016H285.564" stroke="#160037" stroke-width="0.652293" stroke-linecap="round" stroke-linejoin="round"/>
<path d="M384.176 91.667V171.67" stroke="#160037" stroke-width="0.652293" stroke-linecap="round" stroke-linejoin="round"/>
<path d="M416.996 284.236H419.555" stroke="#160037" stroke-width="0.652293" stroke-linecap="round" stroke-linejoin="round"/>
<path d="M403.852 114.644V204.213" stroke="#160037" stroke-width="0.652293" stroke-linecap="round" stroke-linejoin="round"/>
<path d="M423.535 261.366V284.236H439.238" stroke="#160037" stroke-width="0.652293" stroke-linecap="round" stroke-linejoin="round"/>
<path d="M423.535 143.842V204.669" stroke="#160037" stroke-width="0.652293" stroke-linecap="round" stroke-linejoin="round"/>
<path d="M443.211 189.996V284.237H446.789" stroke="#160037" stroke-width="0.652293" stroke-linecap="round" stroke-linejoin="round"/>
<path d="M203.446 292.02H0.652344V423.74H203.446V292.02Z" fill="white" stroke="#160037" stroke-width="0.652293" stroke-linecap="round" stroke-linejoin="round"/>
<path d="M0.652344 292.02L102.049 357.88L203.446 292.02H0.652344Z" fill="white" stroke="#160037" stroke-width="0.652293" stroke-linecap="round" stroke-linejoin="round"/>
<path d="M71.5664 338.078L0.652344 423.74" stroke="#160037" stroke-width="0.652293" stroke-linecap="round" stroke-linejoin="round"/>
<path d="M133.086 338.078L204.001 423.74" stroke="#160037" stroke-width="0.652293" stroke-linecap="round" stroke-linejoin="round"/>
<path d="M311.966 123.945H264.825C263.467 123.946 262.134 124.312 260.966 125.002C259.797 125.693 258.835 126.685 258.178 127.873C257.02 129.964 255.323 131.707 253.263 132.92C251.204 134.133 248.858 134.773 246.467 134.773C244.077 134.773 241.73 134.133 239.671 132.92C237.612 131.707 235.914 129.964 234.756 127.873C234.105 126.669 233.141 125.664 231.965 124.963C230.79 124.261 229.446 123.891 228.078 123.891H180.989C179.696 123.875 178.413 124.113 177.213 124.592C176.012 125.071 174.918 125.782 173.992 126.684C173.066 127.586 172.327 128.662 171.817 129.85C171.307 131.037 171.036 132.314 171.02 133.607V399.49C171.055 402.099 172.126 404.588 173.995 406.41C175.864 408.231 178.379 409.236 180.989 409.205H311.966C314.577 409.236 317.093 408.231 318.964 406.41C320.835 404.589 321.908 402.1 321.947 399.49V133.66C321.911 131.048 320.839 128.558 318.968 126.737C317.096 124.915 314.578 123.91 311.966 123.945Z" fill="#043D94"/>
<path d="M326.544 130.719C326.549 128.928 326.202 127.153 325.52 125.497C324.839 123.84 323.837 122.335 322.572 121.066C321.308 119.798 319.805 118.792 318.151 118.105C316.497 117.418 314.723 117.064 312.932 117.064H180.033C178.246 117.063 176.476 117.414 174.825 118.097C173.174 118.78 171.673 119.781 170.409 121.045C169.145 122.308 168.142 123.807 167.458 125.458C166.773 127.109 166.422 128.879 166.422 130.665V410.107C166.422 413.714 167.854 417.174 170.405 419.725C172.956 422.275 176.416 423.708 180.023 423.708H312.932C316.541 423.708 320.001 422.276 322.554 419.725C325.106 417.175 326.541 413.716 326.544 410.107V130.719ZM321.947 399.49C321.908 402.1 320.835 404.589 318.964 406.41C317.093 408.231 314.577 409.236 311.966 409.205H180.989C178.379 409.236 175.864 408.231 173.994 406.409C172.126 404.588 171.055 402.1 171.019 399.49V133.659C171.036 132.367 171.307 131.091 171.817 129.903C172.326 128.715 173.065 127.639 173.992 126.737C174.917 125.835 176.012 125.124 177.212 124.645C178.413 124.166 179.696 123.928 180.989 123.945H228.099C229.466 123.944 230.808 124.314 231.982 125.015C233.156 125.716 234.118 126.722 234.767 127.926C235.925 130.017 237.622 131.759 239.681 132.973C241.741 134.186 244.087 134.826 246.477 134.826C248.868 134.826 251.214 134.186 253.273 132.973C255.333 131.759 257.03 130.017 258.188 127.926C258.843 126.736 259.805 125.744 260.974 125.052C262.143 124.362 263.477 123.997 264.835 123.998H311.977C313.269 123.981 314.553 124.219 315.753 124.698C316.954 125.177 318.048 125.888 318.974 126.79C319.9 127.692 320.639 128.768 321.149 129.956C321.659 131.144 321.93 132.42 321.947 133.713V399.49Z" fill="#160037"/>
<path opacity="0.2" d="M281.39 117.106L193.105 423.729L228.164 423.697L313.179 117.106H281.39Z" fill="white"/>
<path opacity="0.2" d="M268.225 117.106L174.887 423.74L179.994 423.708L271.581 117.106H268.225Z" fill="white"/>
<path d="M270.295 345.054C270.361 348.093 269.817 351.114 268.697 353.94C267.576 356.766 265.902 359.339 263.771 361.508C261.641 363.677 259.098 365.397 256.293 366.569C253.487 367.74 250.476 368.337 247.436 368.327C241.233 368.303 235.286 365.857 230.862 361.508C226.438 357.159 223.889 351.255 223.759 345.054C223.696 342.015 224.24 338.994 225.361 336.17C226.482 333.345 228.157 330.773 230.287 328.605C232.417 326.438 234.959 324.718 237.764 323.547C240.569 322.377 243.579 321.78 246.618 321.79C252.82 321.811 258.768 324.256 263.192 328.602C267.616 332.949 270.166 338.853 270.295 345.054Z" fill="white" stroke="#160037" stroke-width="0.652293" stroke-linecap="round" stroke-linejoin="round"/>
<path d="M239.397 362.424C237.236 361.624 235.254 360.405 233.567 358.835C231.867 357.201 230.55 355.21 229.713 353.006C228.759 350.535 228.287 347.904 228.322 345.255C228.309 342.997 228.708 340.755 229.501 338.64C230.221 336.687 231.302 334.886 232.686 333.332C235.416 330.346 238.941 328.202 242.847 327.152C244.765 326.635 246.743 326.375 248.729 326.377C250.379 326.37 252.023 326.566 253.624 326.961C255.169 327.341 256.648 327.953 258.009 328.777C259.357 329.586 260.565 330.608 261.587 331.803C262.652 333.091 263.466 334.567 263.987 336.156C264.582 337.968 264.876 339.865 264.857 341.773C264.835 345.459 263.507 349.017 261.109 351.817C260.078 352.985 258.858 353.972 257.499 354.736C256.328 355.409 255.006 355.774 253.656 355.798C252.724 355.811 251.813 355.516 251.065 354.959C250.69 354.681 250.384 354.32 250.172 353.903C249.96 353.487 249.848 353.027 249.844 352.56C249.147 353.619 248.192 354.482 247.067 355.068C245.943 355.653 244.688 355.941 243.421 355.905C242.424 355.949 241.43 355.77 240.511 355.381C239.592 354.991 238.773 354.401 238.112 353.653C236.786 352.113 236.086 350.132 236.148 348.1C236.156 346.429 236.447 344.771 237.007 343.195C237.566 341.608 238.356 340.112 239.354 338.757C240.348 337.426 241.615 336.321 243.07 335.519C244.524 334.698 246.168 334.27 247.837 334.276C248.999 334.265 250.144 334.542 251.171 335.083C252.169 335.615 252.977 336.442 253.486 337.451L253.698 336.74C253.867 336.242 254.227 335.831 254.7 335.598C255.171 335.365 255.717 335.329 256.215 335.498C256.407 335.563 256.59 335.656 256.756 335.773C256.914 335.9 257.04 336.062 257.124 336.247C257.206 336.432 257.244 336.633 257.234 336.835C257.234 337.034 257.202 337.231 257.139 337.419L253.698 348.865C253.395 349.737 253.199 350.642 253.115 351.562C253.083 351.734 253.094 351.91 253.146 352.076C253.199 352.243 253.293 352.393 253.417 352.515C253.542 352.637 253.695 352.726 253.863 352.774C254.03 352.823 254.207 352.83 254.378 352.794C255.595 352.715 256.736 352.172 257.563 351.275C258.71 350.141 259.591 348.767 260.143 347.251C260.802 345.596 261.14 343.831 261.141 342.048C261.155 340.48 260.926 338.918 260.462 337.419C260.071 336.127 259.453 334.916 258.636 333.841C257.861 332.863 256.924 332.026 255.864 331.367C254.808 330.701 253.655 330.203 252.445 329.892C251.205 329.566 249.927 329.401 248.644 329.403C247.018 329.406 245.399 329.634 243.834 330.083C242.224 330.539 240.69 331.23 239.28 332.132C237.859 333.029 236.572 334.122 235.458 335.381C234.31 336.706 233.417 338.233 232.824 339.883C232.158 341.679 231.823 343.583 231.837 345.499C231.802 347.769 232.213 350.024 233.047 352.136C233.766 353.963 234.901 355.599 236.36 356.913C237.77 358.137 239.398 359.084 241.159 359.705C243.017 360.363 244.975 360.693 246.946 360.683C249.052 360.683 251.146 360.364 253.157 359.737C253.358 359.665 253.57 359.629 253.783 359.631C253.982 359.628 254.18 359.667 254.363 359.746C254.546 359.825 254.71 359.941 254.845 360.088C254.981 360.229 255.087 360.395 255.157 360.578C255.229 360.76 255.263 360.954 255.259 361.15C255.285 361.458 255.197 361.766 255.014 362.016C254.831 362.266 254.563 362.44 254.261 362.508C251.755 363.275 249.152 363.675 246.532 363.697C244.097 363.695 241.682 363.263 239.397 362.424ZM248.167 351.413C249.216 350.659 249.995 349.587 250.385 348.356L252.604 340.551L252.456 340.233C252.318 339.977 252.15 339.739 251.957 339.522C251.691 339.215 251.4 338.931 251.087 338.672C250.689 338.355 250.24 338.107 249.759 337.94C248.503 337.501 247.127 337.55 245.905 338.078C245.235 338.361 244.621 338.76 244.089 339.256C243.537 339.772 243.045 340.349 242.624 340.976C242.202 341.63 241.847 342.323 241.562 343.046C241.264 343.771 241.033 344.521 240.872 345.287C240.712 346.016 240.63 346.76 240.628 347.506C240.619 347.985 240.647 348.464 240.713 348.939C240.762 349.362 240.855 349.778 240.989 350.182C241.106 350.557 241.273 350.914 241.488 351.243C241.68 351.54 241.925 351.799 242.21 352.008C242.514 352.228 242.856 352.39 243.219 352.486C243.643 352.61 244.084 352.667 244.524 352.655C245.853 352.672 247.149 352.246 248.209 351.445L248.167 351.413Z" fill="#043D94" stroke="#160037" stroke-width="0.652293" stroke-linecap="round" stroke-linejoin="round"/>
<path d="M269.773 265.285C269.836 268.323 269.291 271.343 268.17 274.168C267.049 276.993 265.374 279.565 263.244 281.732C261.114 283.901 258.572 285.62 255.767 286.79C252.962 287.96 249.952 288.558 246.913 288.547C240.711 288.527 234.763 286.082 230.339 281.736C225.916 277.389 223.366 271.485 223.236 265.285C223.169 262.245 223.712 259.223 224.832 256.396C225.952 253.57 227.627 250.996 229.757 248.827C231.887 246.657 234.431 244.937 237.237 243.766C240.043 242.596 243.055 241.999 246.096 242.011C252.298 242.034 258.246 244.482 262.67 248.83C267.094 253.178 269.642 259.083 269.773 265.285Z" fill="white" stroke="#160037" stroke-width="0.652293" stroke-linecap="round" stroke-linejoin="round"/>
<path d="M261.11 263.161C253.816 258.383 239.515 258.383 232.56 263.161C231.288 263.399 230.145 264.087 229.338 265.099C228.531 266.11 228.114 267.378 228.164 268.671C228.271 271.761 241.107 271.761 241.001 268.671C240.939 267.38 240.445 266.146 239.6 265.168C244.414 264.127 249.395 264.127 254.209 265.168C253.426 266.164 253.019 267.405 253.062 268.671C253.169 271.761 266.005 271.761 265.888 268.671C265.828 267.349 265.323 266.086 264.457 265.086C263.59 264.086 262.411 263.408 261.11 263.161Z" fill="#043D94" stroke="#160037" stroke-width="0.652293" stroke-linecap="round" stroke-linejoin="round"/>
<path d="M269.775 187.797C269.902 193.52 266.78 198.638 261.769 202.046V215.944L251.799 205.964C250.187 206.252 248.552 206.394 246.915 206.388C234.067 206.388 223.461 198.064 223.238 187.797C223.015 177.53 233.24 169.217 246.097 169.217C258.955 169.217 269.604 177.583 269.775 187.797Z" fill="white" stroke="#160037" stroke-width="0.652293" stroke-linecap="round" stroke-linejoin="round"/>
<path d="M236.593 187.797C236.596 188.394 236.42 188.978 236.09 189.476C235.76 189.973 235.29 190.361 234.739 190.591C234.189 190.821 233.582 190.882 232.996 190.767C232.411 190.652 231.872 190.366 231.45 189.944C231.027 189.523 230.739 188.985 230.621 188.4C230.504 187.815 230.563 187.208 230.791 186.657C231.019 186.105 231.405 185.634 231.902 185.302C232.398 184.97 232.981 184.793 233.578 184.793C234.376 184.793 235.141 185.109 235.707 185.672C236.271 186.235 236.59 187 236.593 187.797Z" fill="#043D94" stroke="#160037" stroke-width="0.652293" stroke-linecap="round" stroke-linejoin="round"/>
<path d="M249.495 187.797C249.497 188.394 249.323 188.978 248.992 189.476C248.662 189.973 248.192 190.361 247.642 190.591C247.09 190.821 246.484 190.882 245.899 190.767C245.313 190.652 244.775 190.366 244.351 189.944C243.929 189.523 243.64 188.985 243.524 188.4C243.406 187.815 243.466 187.208 243.693 186.657C243.921 186.105 244.308 185.634 244.803 185.302C245.3 184.97 245.883 184.793 246.48 184.793C247.278 184.793 248.043 185.109 248.608 185.672C249.174 186.235 249.493 187 249.495 187.797Z" fill="#043D94" stroke="#160037" stroke-width="0.652293" stroke-linecap="round" stroke-linejoin="round"/>
<path d="M262.394 187.797C262.396 188.394 262.221 188.978 261.891 189.476C261.561 189.973 261.091 190.361 260.54 190.591C259.989 190.821 259.382 190.882 258.796 190.767C258.211 190.652 257.673 190.366 257.25 189.944C256.827 189.523 256.539 188.985 256.422 188.4C256.305 187.815 256.364 187.208 256.592 186.657C256.819 186.105 257.206 185.634 257.702 185.302C258.198 184.97 258.781 184.793 259.378 184.793C260.176 184.793 260.942 185.109 261.507 185.672C262.072 186.235 262.391 187 262.394 187.797Z" fill="#043D94" stroke="#160037" stroke-width="0.652293" stroke-linecap="round" stroke-linejoin="round"/>
<path d="M116.499 230.172C116.123 230.873 115.579 231.471 114.917 231.913C110.019 235.821 105.008 239.569 99.8827 243.158C98.0034 244.474 96.0498 245.833 94.2344 247.309C83.3196 254.614 89.9874 256.397 83.3196 271.857C81.7482 275.551 82.0352 293.654 82.0352 293.654H81.4932C80.2153 292.393 78.8573 291.215 77.4268 290.129C77.2291 289.996 77.0237 289.876 76.811 289.768C76.6114 289.666 76.3962 289.597 76.1744 289.566C75.1125 289.503 71.0669 289.991 66.9797 289.726L65.9177 289.641C65.3228 289.577 64.739 289.502 64.1551 289.397C63.5711 289.291 63.0084 289.174 62.4669 289.025C58.5876 287.781 54.7837 286.313 51.0743 284.629L49.2269 283.833L48.3138 283.44L47.4856 283.079L46.891 282.824L46.3177 282.58C45.3515 282.177 44.449 281.805 43.6208 281.518C43.2412 281.382 42.855 281.265 42.4635 281.168C42.4635 282.038 42.3255 282.931 42.2087 283.801C41.6991 287.953 40.563 291.786 38.535 292.295C38.4933 292.306 38.4495 292.306 38.4076 292.295C38.229 292.329 38.0478 292.347 37.8662 292.348H37.7069C37.2576 292.339 36.8129 292.257 36.3903 292.104C34.5498 291.318 33.0458 289.908 32.1433 288.122C31.74 287.37 31.5149 286.534 31.485 285.681C31.485 282.591 30.625 264.361 30.625 259.051C30.625 253.743 31.6868 244.453 34.3305 241.002C35.3637 239.539 36.6686 238.288 38.1741 237.318C40.1112 235.703 42.333 234.464 44.725 233.666C47.5493 232.742 53.8667 230.385 58.273 228.718L51.6158 231.287C53.304 234.175 56.9246 238.72 63.4543 239.303C69.5914 239.823 73.3924 234.271 75.3355 230.215C75.5051 230.278 86.1864 228.25 88.6599 228.367C96.719 228.718 103.291 224.354 106.264 222.623C107.161 222.087 108.167 221.761 109.208 221.669C110.248 221.577 111.296 221.721 112.273 222.09C113.25 222.46 114.131 223.046 114.85 223.804C115.569 224.561 116.107 225.471 116.425 226.467V226.562C116.889 227.716 116.916 229 116.499 230.172Z" fill="#043D94" stroke="#160037" stroke-width="0.652293" stroke-linecap="round" stroke-linejoin="round"/>
<path d="M75.219 230.278L74.7305 230.108" stroke="#160037" stroke-width="0.652293" stroke-linecap="round" stroke-linejoin="round"/>
<path d="M84.2748 298.326C84.28 298.368 84.28 298.411 84.2748 298.453C84.2317 298.556 84.1658 298.648 84.083 298.721C83.9995 298.795 83.901 298.85 83.794 298.88C83.687 298.91 83.5742 298.917 83.4646 298.898C83.355 298.879 83.2507 298.836 83.16 298.772C82.6714 298.496 81.9174 296.723 81.9174 296.723L81.0792 295.852L80.5267 295.268C80.6115 295.481 81.2807 297.105 80.9304 297.859C80.9122 297.91 80.8835 297.957 80.845 297.997C80.6108 298.31 80.3062 298.565 79.9559 298.74C79.6056 298.915 79.2195 299.006 78.8281 299.006C78.3715 299.006 77.0336 299.165 75.8654 299.239H75.7382C75.3847 299.259 75.0304 299.259 74.6763 299.239C73.7337 299.118 72.8244 298.811 72.0012 298.336C70.133 298.062 68.2929 297.625 66.5011 297.031L66.1827 296.861L65.8957 296.691C65.7072 296.577 65.5331 296.442 65.3759 296.288C64.7286 295.748 64.1791 295.102 63.7511 294.376C63.7511 294.376 59.4404 294.196 53.6539 293.75C51.5304 293.59 49.237 293.389 46.8587 293.155C43.2062 292.783 40.1909 292.805 37.8232 292.476H37.6533C37.1861 292.412 36.7508 292.327 36.3367 292.232C35.3262 292.034 34.3918 291.556 33.6407 290.851C32.8895 290.148 32.352 289.245 32.0898 288.25C31.9507 287.778 31.8373 287.3 31.75 286.817L33.5974 283.631C34.5603 282.859 35.6341 282.237 36.7827 281.784C38.5646 281.038 40.5323 280.857 42.4205 281.264C42.812 281.361 43.1983 281.478 43.5779 281.614C44.4061 281.933 45.3085 282.304 46.2747 282.676L46.8587 282.92L47.4532 283.175L48.2814 283.536C53.0062 285.49 58.6441 288.006 62.4133 289.067C63.5454 289.364 64.6992 289.57 65.8638 289.683L66.9257 289.769C71.0136 290.034 75.0481 289.545 76.1204 289.609C77.1928 289.673 79.8157 292.168 81.4927 293.707C81.9493 294.132 82.3531 294.483 82.629 294.695L82.7562 294.801L82.8521 294.886C83.46 295.51 83.886 296.288 84.0836 297.137C84.1671 297.421 84.2239 297.713 84.2532 298.008C84.2728 298.113 84.28 298.22 84.2748 298.326Z" fill="white" stroke="#160037" stroke-width="0.652293" stroke-linecap="round" stroke-linejoin="round"/>
<path d="M84.2745 298.326C84.2797 298.368 84.2797 298.411 84.2745 298.453C84.2301 298.555 84.1642 298.645 84.0801 298.718C83.9966 298.791 83.8974 298.844 83.7905 298.874C83.6835 298.903 83.572 298.908 83.4624 298.889C83.3534 298.869 83.2497 298.825 83.1597 298.761C82.6346 298.152 82.2152 297.459 81.9177 296.712L81.0789 295.852L80.5264 295.278C80.6008 295.449 81.2909 297.105 80.9406 297.869C80.923 297.921 80.8936 297.968 80.8558 298.007C80.7377 298.164 80.6027 298.306 80.452 298.432C79.9941 298.799 79.4253 299.002 78.8383 299.005C78.3712 299.005 77.0438 299.154 75.8866 299.239H75.7379C75.3844 299.259 75.0302 299.259 74.6766 299.239C73.7393 299.114 72.8346 298.811 72.0114 298.347C70.1438 298.067 68.3037 297.627 66.5112 297.03L66.2033 296.882L65.917 296.712C65.733 296.591 65.5595 296.456 65.3965 296.308C64.7401 295.764 64.1832 295.111 63.7509 294.376C63.7509 294.376 59.5676 294.195 53.8979 293.76C51.7743 293.601 49.3217 293.389 46.8585 293.145C43.5033 292.815 40.7322 292.719 38.4919 292.369L37.8018 292.242L37.0054 292.061C36.8219 290.76 36.9566 289.434 37.3983 288.196C37.8098 287.153 38.4481 286.213 39.267 285.445C40.086 284.678 41.0651 284.101 42.1337 283.759C43.4599 283.271 44.8187 282.877 46.2002 282.58L46.7735 282.824L47.3681 283.079L48.1962 283.44C53.006 285.51 58.5802 288.016 62.36 289.046C63.4913 289.344 64.6456 289.547 65.8107 289.651L66.8726 289.736C70.9605 290.012 74.9949 289.524 76.0673 289.588C77.1397 289.651 79.7515 292.136 81.3757 293.675C81.7442 294.027 82.131 294.36 82.5335 294.673L82.6607 294.769L82.7559 294.854C83.3756 295.469 83.8035 296.251 83.9881 297.105C84.0716 297.389 84.1284 297.681 84.1577 297.976C84.2119 298.086 84.2516 298.204 84.2745 298.326Z" fill="white" stroke="#160037" stroke-width="0.652293" stroke-linecap="round" stroke-linejoin="round"/>
<path d="M71.5664 295.502C71.5664 295.502 73.9766 296.755 74.9322 297.19C75.8879 297.626 75.8031 299.377 75.8031 299.377" fill="white"/>
<path d="M71.5664 295.502C71.5664 295.502 73.9766 296.755 74.9322 297.19C75.8879 297.626 75.8031 299.377 75.8031 299.377" stroke="#160037" stroke-width="0.652293" stroke-linecap="round" stroke-linejoin="round"/>
<path d="M74.1484 293.804C75.6644 294.886 77.1242 296.044 78.5227 297.276C78.7269 297.515 78.86 297.808 78.9069 298.119C78.9539 298.43 78.9128 298.749 78.7882 299.038" fill="white"/>
<path d="M74.1484 293.804C75.6644 294.886 77.1242 296.044 78.5227 297.276C78.7269 297.515 78.86 297.808 78.9069 298.119C78.9539 298.43 78.9128 298.749 78.7882 299.038" stroke="#160037" stroke-width="0.652293" stroke-linecap="round" stroke-linejoin="round"/>
<path d="M80.4972 295.258C79.2409 293.912 77.9122 292.636 76.5156 291.436L80.4972 295.258Z" fill="white"/>
<path d="M80.4972 295.258C79.2409 293.912 77.9122 292.636 76.5156 291.436" stroke="#160037" stroke-width="0.652293" stroke-linecap="round" stroke-linejoin="round"/>
<path d="M75.2086 230.3C73.287 234.346 69.4756 239.855 63.3385 239.378C56.8406 238.826 53.1882 234.25 51.5 231.351C53.8359 230.459 56.2036 229.546 58.1465 228.781C58.1465 226.807 58.0829 224.439 57.8705 222.093C57.8705 221.583 57.7643 221.031 57.7113 220.553C57.6582 220.075 57.5944 219.735 57.5308 219.343H69.8788C69.8788 219.343 69.8044 219.831 69.7092 220.649C69.6348 221.381 69.5389 222.358 69.4646 223.463C69.3693 224.928 69.3054 226.648 69.3478 228.272C69.9427 228.474 70.548 228.697 71.1527 228.93L72.3209 229.334C72.788 229.504 73.2446 229.652 73.7332 229.811L74.7951 230.13C74.936 230.178 75.0743 230.235 75.2086 230.3Z" fill="white" stroke="#160037" stroke-width="0.652293" stroke-linecap="round" stroke-linejoin="round"/>
<path d="M57.7109 220.511C57.7109 220.511 60.0149 226.499 63.3594 227.518C66.7037 228.537 69.7297 220.648 69.7297 220.648C69.7297 220.648 65.0158 225.681 63.2638 224.895C61.512 224.109 57.7321 220.553 57.7321 220.553" fill="#160037"/>
<path d="M55.7269 187.437C52.6066 190.246 50.1325 193.697 48.4751 197.555C46.9568 200.74 45.6721 204.404 46.84 207.737C47.5389 209.393 48.5277 210.91 49.7598 212.218C52.0532 214.968 55.2703 222.644 57.5637 225.394C57.7123 220.5 53.614 212.589 54.0493 208.48C54.5766 205.306 55.6203 202.239 57.139 199.402C58.6835 195.682 60.7035 192.178 63.1485 188.976C64.5394 187.298 69.0091 184.315 64.4969 183.954C61.5028 183.71 57.9884 185.578 55.7269 187.437Z" fill="#160037" stroke="#160037" stroke-width="0.652293" stroke-linecap="round" stroke-linejoin="round"/>
<path d="M52.8365 204.127C52.8365 204.127 51.2545 201.059 49.5876 203.968C48.3877 206.092 50.1184 209.436 50.8616 210.678C51.1083 211.032 51.4423 211.315 51.8313 211.501C52.2202 211.688 52.6506 211.77 53.0807 211.74L52.8365 204.127Z" fill="white" stroke="#160037" stroke-width="0.652293" stroke-linecap="round" stroke-linejoin="round"/>
<path d="M73.6282 215.212C72.6139 217.217 71.2917 219.052 69.7106 220.649L68.755 221.636C66.7798 223.59 64.6458 225.14 63.2443 224.821C62.0233 224.577 60.4307 223.324 58.8699 221.721C58.4771 221.328 58.0949 220.904 57.7126 220.479C56.0133 218.619 54.5543 216.554 53.37 214.331C53.0411 213.497 52.8303 212.622 52.7436 211.73C52.4757 209.07 52.3835 206.396 52.4676 203.724C52.4676 202.78 52.4676 202.026 52.4676 201.601C52.4676 199.754 59.3902 193.33 59.3902 193.33C59.5767 193.261 59.7772 193.239 59.9741 193.266C61.1647 193.482 62.3123 193.891 63.3718 194.477C67.5658 196.515 73.4156 200.56 73.8409 202.1C74.488 204.34 74.244 213.216 73.6282 215.212Z" fill="white" stroke="#160037" stroke-width="0.652293" stroke-linecap="round" stroke-linejoin="round"/>
<path d="M59.8755 206.697C59.8755 207.44 59.5995 208.045 59.2916 208.045C58.9837 208.045 58.6758 207.461 58.6758 206.697C58.6758 205.932 58.9518 205.327 59.2916 205.327C59.6313 205.327 59.8755 205.953 59.8755 206.697Z" fill="#160037"/>
<path d="M67.7876 205.338C68.1268 205.338 68.4034 205.943 68.4034 206.697C68.4034 207.451 68.1268 208.045 67.7876 208.045C67.4478 208.045 67.1719 207.44 67.1719 206.697C67.1719 205.954 67.4478 205.338 67.7876 205.338Z" fill="#160037"/>
<path d="M55.9258 203.353C55.9258 203.353 56.9875 201.229 60.7461 201.877" stroke="#160037" stroke-width="0.652293" stroke-linecap="round" stroke-linejoin="round"/>
<path d="M71.2814 203.353C71.2814 203.353 70.2195 201.229 66.4609 201.877" stroke="#160037" stroke-width="0.652293" stroke-linecap="round" stroke-linejoin="round"/>
<path d="M64.3242 211.89C64.7061 211.866 65.0701 211.719 65.3625 211.473C65.6554 211.226 65.8608 210.892 65.9489 210.52C65.9489 210.52 63.8889 207.335 64.5153 204.213" stroke="#160037" stroke-width="0.652293" stroke-linecap="round" stroke-linejoin="round"/>
<path d="M51.501 196.695C50.6456 197.856 49.9989 199.156 49.5898 200.539" stroke="white" stroke-width="0.652293" stroke-linecap="round" stroke-linejoin="round"/>
<path d="M60.3768 188.201C60.3768 188.201 59.1983 190.155 54.0063 194.136C53.6718 194.378 53.3526 194.641 53.0508 194.922" stroke="white" stroke-width="0.652293" stroke-linecap="round" stroke-linejoin="round"/>
<path d="M43.7289 250.452C43.0211 260.546 42.3133 270.647 41.6055 280.754V279.98" fill="#160037"/>
<path d="M43.7289 250.452C43.0211 260.546 42.3133 270.647 41.6055 280.754V279.98" stroke="#160037" stroke-width="0.652293" stroke-linecap="round" stroke-linejoin="round"/>
<path d="M110.798 217.124C111.759 216.749 112.796 216.615 113.819 216.733C114.843 216.852 115.822 217.219 116.67 217.803C118.364 219.002 119.596 220.745 120.163 222.741C120.84 224.728 120.772 226.894 119.972 228.835C119.558 229.792 118.892 230.618 118.045 231.226C117.198 231.834 116.201 232.2 115.162 232.286C113.614 232.266 112.117 231.723 110.915 230.746C106.945 227.773 104.959 219.64 110.798 217.124Z" fill="white" stroke="#160037" stroke-width="0.652293" stroke-linecap="round" stroke-linejoin="round"/>
<path d="M119.588 183.222C119.588 183.349 119.588 184.188 119.663 184.337C120.035 185.971 120.82 190.059 118.834 190.888C119.588 193.574 121.436 211.124 121.192 220.075C121.128 222.751 120.661 225.925 118.261 227.072C114.216 228.994 110.372 224.311 110.829 220.649C111.54 215.647 111.296 210.551 111.891 205.497C112.538 200.252 113.727 194.88 112.422 189.751C112.103 189.401 110.064 185.356 109.396 184.241C109.096 183.765 108.859 183.251 108.694 182.712C108.433 180.88 108.306 179.031 108.313 177.18C108.917 176.034 109.703 177.096 110.118 177.849C110.455 178.768 110.572 179.754 110.458 180.727C110.418 180.964 110.451 181.209 110.553 181.427C110.642 181.553 110.762 181.652 110.902 181.715C111.042 181.778 111.197 181.804 111.349 181.788C112.655 181.597 112.602 180.504 112.581 179.665C112.581 176.851 112.581 174.038 112.581 171.245C112.581 170.778 112.729 169.515 113.175 169.472C113.621 169.43 114.29 169.791 114.354 171.288C114.428 172.976 114.428 178.178 114.428 178.178C114.47 178.221 114.523 178.253 114.58 178.269C114.638 178.286 114.699 178.287 114.757 178.274C114.864 178.274 114.906 178.083 114.949 177.977C115.575 175.365 116.212 172.753 116.838 170.141C116.913 169.833 117.369 169.196 117.699 169.196C118.484 169.196 118.506 170.109 118.548 170.374C118.824 171.776 116.86 177.552 116.53 178.868C116.53 179.102 116.53 179.452 116.774 179.389L119.854 173.177C119.997 172.815 120.221 172.49 120.51 172.228C120.8 171.967 121.145 171.775 121.52 171.67C121.573 171.653 121.628 171.653 121.68 171.67C121.735 171.702 121.779 171.75 121.807 171.808C122.105 172.339 121.807 173.072 121.637 173.655C121.468 174.239 119.164 178.529 118.346 180.259C118.229 180.504 118.038 181.056 118.272 181.321C118.506 181.587 118.93 181.077 119.1 180.727C119.62 179.665 120.108 178.667 120.586 177.627C120.735 177.319 120.958 176.883 121.308 176.957C123.379 177.403 120.438 181.746 119.588 183.222Z" fill="white" stroke="#160037" stroke-width="0.652293" stroke-linecap="round" stroke-linejoin="round"/>
<path d="M113.879 182.309C114.947 183.155 115.876 184.166 116.629 185.303C117 185.874 117.248 186.517 117.358 187.19C117.468 187.862 117.437 188.55 117.266 189.21C117.214 189.382 117.147 189.549 117.064 189.709" fill="white"/>
<path d="M113.879 182.309C114.947 183.155 115.876 184.166 116.629 185.303C117 185.874 117.248 186.517 117.358 187.19C117.468 187.862 117.437 188.55 117.266 189.21C117.214 189.382 117.147 189.549 117.064 189.709" stroke="#160037" stroke-width="0.652293" stroke-linecap="round" stroke-linejoin="round"/>
<path d="M83.9688 248.637C85.092 250.902 85.8487 253.332 86.2087 255.835C86.5173 258.341 86.6125 260.305 84.9028 267.344" stroke="#160037" stroke-width="0.652293" stroke-linecap="round" stroke-linejoin="round"/>
<path d="M60.004 191.738C59.8586 192.171 59.8221 192.635 59.8978 193.086C60.0992 193.654 60.4697 194.147 60.9595 194.498C64.3531 197.472 68.1489 199.953 72.2355 201.866C72.7476 201.999 73.1918 202.32 73.4808 202.763C73.7697 203.208 73.8819 203.743 73.7958 204.266V212.473C73.848 213.319 73.7658 214.169 73.5519 214.99C72.9576 216.9 71.6406 218.441 70.685 220.203C69.7138 221.874 69.2213 223.781 69.2624 225.713C68.9969 223.686 76.0893 219.757 78.0109 211.773C78.2764 210.647 83.7981 203.947 80.4851 196.08C77.2999 188.531 72.2884 185.282 70.6002 184.889C69.4542 184.554 68.2448 184.497 67.0726 184.722C65.9005 184.947 64.7983 185.449 63.8581 186.185C62.0027 187.566 60.6494 189.516 60.004 191.738Z" fill="#160037" stroke="#160037" stroke-width="0.652293" stroke-linecap="round" stroke-linejoin="round"/>
<path d="M66.9594 214.746C66.354 214.873 65.7383 214.99 65.1225 215.064C62.999 215.329 60.7268 215 59.3359 213.45C59.4421 214.841 60.3977 220.096 63.2538 220.245C66.1101 220.394 66.9594 214.746 66.9594 214.746Z" stroke="#160037" stroke-width="0.652293" stroke-linecap="round" stroke-linejoin="round"/>
<path d="M64.1992 188.531C65.4236 191.311 67.3753 193.71 69.8475 195.475C71.642 196.759 73.6915 197.684 75.3372 199.149C77.4604 201.092 78.8511 204.171 78.0338 206.963" stroke="white" stroke-width="0.652293" stroke-linecap="round" stroke-linejoin="round"/>
<path d="M86.3874 231.425C84.3418 233.067 82.9948 235.423 82.6184 238.019C82.2518 240.261 82.5284 242.562 83.4149 244.655" stroke="#160037" stroke-width="0.652293" stroke-linecap="round" stroke-linejoin="round"/>
<path d="M46.8398 248.944C46.67 251.726 44.9393 254.136 43.2617 256.377L46.8398 248.944Z" fill="#160037"/>
<path d="M46.8398 248.944C46.67 251.726 44.9393 254.136 43.2617 256.377" stroke="#160037" stroke-width="0.652293" stroke-linecap="round" stroke-linejoin="round"/>
<path d="M42.6992 270.211C43.5426 271.623 44.6713 272.844 46.0133 273.794C47.3552 274.745 48.8808 275.405 50.4925 275.733" stroke="#160037" stroke-width="0.652293" stroke-linecap="round" stroke-linejoin="round"/>
<path d="M83.3184 271.867C83.3184 271.867 80.4626 276.114 70.7578 277.006" stroke="#160037" stroke-width="0.652293" stroke-linecap="round" stroke-linejoin="round"/>
<path d="M367.604 234.653C367.604 234.653 330.602 246.12 323.637 237.063L324.581 190.866H330.198L336.802 223.409L367.126 217.856C367.126 217.856 371.012 229.896 367.604 234.653Z" fill="white"/>
<path d="M352.018 236.267C349.896 237.11 347.871 238.178 345.977 239.452C348.482 240.248 351.158 239.24 353.664 238.443C356.973 237.427 360.346 236.632 363.761 236.065C363.92 235.12 362.699 232.965 362.221 232.126C361.35 230.661 361.159 230.534 359.694 231.256C357.029 232.593 354.757 234.918 352.018 236.267Z" fill="#043D94"/>
<path d="M367.604 234.653C367.604 234.653 330.602 246.12 323.637 237.063L324.581 190.866H330.198L336.802 223.409L367.126 217.856C367.126 217.856 371.012 229.896 367.604 234.653Z" stroke="#160037" stroke-width="0.652293" stroke-linecap="round" stroke-linejoin="round"/>
<path d="M363.972 235.863L370.47 275.87C370.3 301.798 382.669 297.901 391.259 297.827C401.186 297.742 416.253 287.899 408.863 272.578L411.708 217.123L394.412 215.807C388.711 215.361 365.352 216.094 363.494 219.077C358.673 226.817 363.972 235.863 363.972 235.863Z" fill="white"/>
<path d="M364.99 239.165C368.85 253.764 378.105 266.355 390.886 274.394C389.503 274.175 388.151 273.786 386.862 273.237C385.566 272.678 384.114 272.599 382.764 273.014C382.439 273.131 382.139 273.312 381.883 273.545C381.627 273.778 381.42 274.06 381.273 274.374C381.126 274.687 381.042 275.027 381.026 275.373C381.011 275.719 381.064 276.065 381.182 276.39C381.492 276.888 381.914 277.306 382.414 277.611C384.522 279.093 386.827 280.273 389.262 281.115C387.127 280.896 384.969 281.061 382.892 281.603C382.51 283.451 384.569 284.788 386.194 285.691C388.785 287.219 391.005 289.304 392.692 291.796C386.991 291.808 381.294 292.135 375.629 292.773C374.882 292.94 374.102 292.866 373.4 292.56C372.665 292.013 372.17 291.203 372.02 290.299C370.757 285.882 370.023 281.331 369.832 276.74C369.726 274.161 369.832 271.559 369.493 269C369.219 266.983 368.843 264.981 368.367 263.001C366.718 255.343 365.454 247.624 364.577 239.845C364.183 239.877 364.99 239.165 364.99 239.165Z" fill="#043D94"/>
<path d="M408.853 235.98C407.42 235.52 406.085 234.8 404.914 233.856C405.243 235.449 407.621 238.199 409.012 239.048C409.299 239.229 409.713 239.377 409.968 239.133C410.222 238.889 410.393 238.263 410.647 238.072L408.853 235.98Z" fill="#043D94"/>
<path d="M363.972 235.863L370.47 275.87C370.3 301.798 382.669 297.901 391.259 297.827C401.186 297.742 416.253 287.899 408.863 272.578L411.708 217.123L394.412 215.807C388.711 215.361 365.352 216.094 363.494 219.077C358.673 226.817 363.972 235.863 363.972 235.863Z" stroke="#160037" stroke-width="0.652293" stroke-linecap="round" stroke-linejoin="round"/>
<path d="M376.618 214.989C374.757 218.397 373.861 222.248 374.027 226.127C374.025 226.466 374.09 226.801 374.218 227.115C374.697 228.06 376.003 228.06 377.053 228.177C381.141 228.696 383.679 233.007 387.533 234.451C387.668 234.534 387.819 234.59 387.975 234.613C388.133 234.637 388.292 234.629 388.446 234.589C388.6 234.549 388.744 234.48 388.87 234.382C388.996 234.286 389.101 234.165 389.179 234.026C390.857 231.903 391.451 228.919 393.744 227.55C394.742 226.955 396.006 226.711 396.696 225.777C397.482 224.715 397.131 223.186 396.749 221.89C396.123 219.767 395.422 217.558 393.797 216.083C392.067 214.732 389.941 213.986 387.745 213.959C384.533 213.696 381.298 213.998 378.19 214.851C378.232 215.255 376.618 214.989 376.618 214.989Z" fill="#043D94" stroke="#160037" stroke-width="0.652293" stroke-linecap="round" stroke-linejoin="round"/>
<path d="M428.005 242.138C425.41 238.36 423.498 234.155 422.357 229.716C421.941 227.492 421.293 225.317 420.424 223.229C419.605 221.615 418.421 220.214 416.967 219.136C415.514 218.058 413.829 217.333 412.047 217.018C411.287 216.85 410.495 216.886 409.754 217.123C408.214 217.708 407.535 219.481 407.227 221.094C406.56 224.561 406.757 228.138 407.8 231.51C408.512 233.804 417.059 250.431 422.665 256.875C422.176 253.626 425.914 242.765 428.005 242.138Z" fill="white"/>
<path d="M411.241 238.879L416.486 248.764C417.239 250.176 418.089 251.683 419.554 252.299C418.632 249.033 418.108 245.668 417.993 242.276C418.051 240.572 417.854 238.869 417.409 237.223C417.197 237.403 416.974 236.638 416.974 236.638C416.74 237.074 416.124 237.085 415.647 236.989C412.217 236.267 409.86 233.209 407.822 230.363C407.557 231.317 407.514 232.318 407.699 233.291C407.883 234.263 408.288 235.179 408.883 235.97C408.883 235.97 411.07 238.55 411.241 238.879Z" fill="#043D94"/>
<path d="M428.005 242.138C425.41 238.36 423.498 234.155 422.357 229.716C421.941 227.492 421.293 225.317 420.424 223.229C419.605 221.615 418.421 220.214 416.967 219.136C415.514 218.058 413.829 217.333 412.047 217.018C411.287 216.85 410.495 216.886 409.754 217.123C408.214 217.708 407.535 219.481 407.227 221.094C406.56 224.561 406.757 228.138 407.8 231.51C408.512 233.804 417.059 250.431 422.665 256.875C422.176 253.626 425.914 242.765 428.005 242.138Z" stroke="#160037" stroke-width="0.652293" stroke-linecap="round" stroke-linejoin="round"/>
<path d="M420.637 254.031C414.925 243.084 417.686 217.857 417.516 213.801L425.054 213.397C425.808 213.397 429.301 234.908 431.679 243.837C433.803 251.971 431.765 260.2 428.006 260.2C424.884 260.2 421.837 256.335 420.637 254.031Z" fill="white" stroke="#160037" stroke-width="0.652293" stroke-linecap="round" stroke-linejoin="round"/>
<path d="M352.57 225.607C357.879 217.856 368.295 217.24 368.295 217.24" stroke="#160037" stroke-width="0.652293" stroke-linecap="round" stroke-linejoin="round"/>
<path d="M332.086 229.95C333.692 228.474 334.95 226.661 335.771 224.641L332.086 229.95Z" fill="white"/>
<path d="M332.086 229.95C333.692 228.474 334.95 226.661 335.771 224.641" stroke="#160037" stroke-width="0.652293" stroke-linecap="round" stroke-linejoin="round"/>
<path d="M371.531 266.58C374.557 271.538 394.157 276.837 401.972 275.7" stroke="#160037" stroke-width="0.652293" stroke-linecap="round" stroke-linejoin="round"/>
<path d="M377.074 280.574C382.72 281.545 388.506 281.324 394.062 279.926" stroke="#160037" stroke-width="0.652293" stroke-linecap="round" stroke-linejoin="round"/>
<path d="M403.078 232.466L406.815 237.53C407.325 238.22 408.036 238.996 408.875 238.805" stroke="#160037" stroke-width="0.652293" stroke-linecap="round" stroke-linejoin="round"/>
<path d="M430.851 424.579C430.522 425.927 430.416 427.53 431.382 428.539C432.348 429.547 433.749 429.526 435.055 429.505L439.547 429.42C441.279 429.506 443.01 429.235 444.632 428.624C445.444 428.308 446.139 427.751 446.623 427.027C447.108 426.304 447.358 425.449 447.34 424.579C447.23 423.905 447.014 423.253 446.703 422.646C446.3 421.775 445.896 420.894 445.503 420.024C440.545 409.098 432.975 415.745 430.851 424.579Z" fill="white" stroke="#160037" stroke-width="0.652293" stroke-linecap="round" stroke-linejoin="round"/>
<path d="M424.523 411.699C424.68 416.714 424.26 421.73 423.27 426.649C423.037 427.764 423.27 429.452 424.331 429.346C424.748 429.282 425.127 429.066 425.393 428.74C429.296 424.891 432.087 420.06 433.473 414.757C433.682 414.206 433.779 413.619 433.759 413.03C433.739 412.442 433.602 411.863 433.357 411.328C433.066 410.898 432.707 410.518 432.295 410.202C428.695 407.325 424.194 404.469 424.523 411.699Z" fill="white" stroke="#160037" stroke-width="0.652293" stroke-linecap="round" stroke-linejoin="round"/>
<path d="M412.198 283.366C412.198 283.366 417.793 293.092 418.993 295.353C420.193 297.615 445.537 330.922 450.4 355.172C451.313 359.78 432.616 411.317 432.616 411.317L428.368 408.918C428.368 408.918 431.32 361.914 430.598 358.007C429.876 354.1 411.221 325.263 411.221 325.263C411.221 325.263 400.805 317.608 396.516 308.71L412.198 283.366Z" fill="#160037"/>
<path d="M412.804 307.733C412.804 307.733 409.618 314.826 409.618 315.844C409.618 316.864 427.138 372.224 432.287 385.028C435.543 393.274 438.413 401.712 440.898 410.34C440.898 410.34 442.894 412.963 441.386 415.649C439.878 418.335 433.88 420.098 432.648 417.698C431.416 415.298 419.281 402.834 414.163 390.432C409.045 378.032 401.846 357.306 397.748 349.587C392.38 339.724 387.615 329.544 383.478 319.104C378.329 305.928 373.062 291.721 373.062 291.721C375.201 291.914 377.35 291.974 379.497 291.902C384.551 291.73 389.555 290.843 394.361 289.269C405.552 285.51 410.394 278.312 410.394 278.312C410.394 278.312 413.165 285.818 413.887 287.273L412.804 307.733Z" fill="#160037"/>
<path d="M448.531 359.918C447.435 361.797 445.959 363.428 444.199 364.706" stroke="white" stroke-width="0.652293" stroke-linecap="round" stroke-linejoin="round"/>
<path d="M449.901 356.828C449.742 357.345 449.551 357.853 449.328 358.347" stroke="white" stroke-width="0.652293" stroke-linecap="round" stroke-linejoin="round"/>
<path d="M402.684 291.19C405.508 296.053 408.152 303.05 407.727 308.656C407.499 309.674 407.143 310.659 406.665 311.586" stroke="white" stroke-width="0.652293" stroke-linecap="round" stroke-linejoin="round"/>
<path d="M385.591 296.596C385.899 299.303 386.313 303.805 385.719 306.459C385.216 309.174 383.659 311.579 381.387 313.148" stroke="white" stroke-width="0.652293" stroke-linecap="round" stroke-linejoin="round"/>
<path d="M409.672 286.35C410.288 287.119 410.789 287.973 411.158 288.887C411.877 290.2 412.865 291.346 414.059 292.25C415.252 293.154 416.622 293.796 418.081 294.132" stroke="white" stroke-width="0.652293" stroke-linecap="round" stroke-linejoin="round"/>
<path d="M400.656 297.2C404.404 305.397 407.271 313.615 413.09 327.545" stroke="white" stroke-width="0.652293" stroke-linecap="round" stroke-linejoin="round"/>
<path d="M398.66 293.007C398.979 293.644 399.287 294.281 399.595 294.918" stroke="white" stroke-width="0.652293" stroke-linecap="round" stroke-linejoin="round"/>
<path d="M429.855 355.713C431.573 359.024 433.758 362.07 436.343 364.76" stroke="white" stroke-width="0.652293" stroke-linecap="round" stroke-linejoin="round"/>
<path d="M431.629 358.771C432.753 363.967 434.808 368.916 437.691 373.382" stroke="white" stroke-width="0.652293" stroke-linecap="round" stroke-linejoin="round"/>
<path d="M405.231 359.037C396.96 341.39 388.137 323.882 377.297 297.2" stroke="white" stroke-width="0.652293" stroke-linecap="round" stroke-linejoin="round"/>
<path d="M407.102 364.164C406.9 363.549 406.688 362.933 406.465 362.307" stroke="white" stroke-width="0.652293" stroke-linecap="round" stroke-linejoin="round"/>
<path d="M435.693 418.421C433.569 415.65 418.089 394.001 414.245 384.19C411.686 377.65 409.754 373.031 407.875 366.512" stroke="white" stroke-width="0.652293" stroke-linecap="round" stroke-linejoin="round"/>
<path d="M429.855 376.758L437.213 398.386" stroke="white" stroke-width="0.652293" stroke-linecap="round" stroke-linejoin="round"/>
<path d="M424.896 213.407L422.667 213.587C419.842 214.09 416.94 213.955 414.173 213.195C412.4 212.759 408.291 211.485 407.802 211.4C406.582 211.139 405.348 210.941 404.107 210.806C400.36 210.583 402.26 209.181 403.821 209.245C405.881 209.34 406.571 209.298 408.153 209.415C407.962 209.309 407.378 209.191 407.367 208.736C407.367 207.62 408.832 207.674 408.832 207.674C408.832 207.674 407.229 206.994 407.452 206.155C407.675 205.316 408.748 205.093 409.427 205.157C409.427 205.157 408.525 204.722 408.567 204.255C408.758 202.449 412.464 202.322 412.464 202.322C411.567 201.922 410.728 201.404 409.968 200.783C409.691 200.484 409.497 200.118 409.406 199.721C409.385 199.532 409.417 199.341 409.496 199.168C409.575 198.995 409.7 198.846 409.856 198.738C410.012 198.629 410.195 198.565 410.384 198.551C410.574 198.537 410.764 198.575 410.935 198.66C411.893 199.297 412.818 199.985 413.706 200.719C414.852 201.537 416.18 202.057 417.39 202.789C418.57 203.799 419.521 205.047 420.182 206.452C420.373 206.75 424.896 213.407 424.896 213.407Z" fill="white" stroke="#160037" stroke-width="0.652293" stroke-linecap="round" stroke-linejoin="round"/>
<path d="M324.582 190.866V185.016C324.569 182.08 324.998 179.159 325.857 176.352C326.345 174.802 326.918 173.453 327.439 173.252C328.405 172.901 328.829 176.819 328.829 176.819C328.103 173.678 327.638 170.482 327.439 167.263C327.439 163.855 332.026 178.008 332.026 178.008L330.199 190.866H324.582Z" fill="white" stroke="#160037" stroke-width="0.652293" stroke-linecap="round" stroke-linejoin="round"/>
<path d="M330.125 181.353C330.68 180.926 331.094 180.341 331.314 179.676L330.125 181.353Z" fill="white"/>
<path d="M330.125 181.353C330.68 180.926 331.094 180.341 331.314 179.676" stroke="#160037" stroke-width="0.652293" stroke-linecap="round" stroke-linejoin="round"/>
<path d="M374.59 203.066C376.573 206.405 377.669 210.195 377.775 214.076C377.966 220.532 385.441 229.568 387.575 230.003C389.709 230.438 391.684 219.81 391.589 216.593C391.493 213.376 390.304 204.489 390.304 204.489C390.304 204.489 380.079 196.759 374.59 203.066Z" fill="white" stroke="#160037" stroke-width="0.652293" stroke-linecap="round" stroke-linejoin="round"/>
<path d="M377.594 211.613C377.594 211.613 387.394 224.98 391.238 211.39C395.081 197.799 380.461 215.106 377.594 211.613Z" fill="#160037"/>
<path d="M394.137 202.004C393.617 209.936 389.996 214.395 385.824 215.181C382.012 215.882 376.438 211.995 373.656 206.23C373.444 206.092 370.057 203.746 369.25 203.173C368.828 202.878 368.484 202.485 368.248 202.028C368.011 201.572 367.889 201.064 367.891 200.55C367.917 200.056 368.092 199.582 368.391 199.188C368.69 198.795 369.1 198.5 369.568 198.342H369.664C370.142 198.237 370.64 198.274 371.097 198.448C370.396 195.74 369.823 192.99 369.388 190.219C369.589 183.848 371.703 178.646 378.498 178.136C385.293 177.627 390.973 181.428 391.239 184.167C391.43 186.29 392.12 191.907 392.736 197.715C392.905 199.223 394.254 200.221 394.137 202.004Z" fill="white" stroke="#160037" stroke-width="0.652293" stroke-linecap="round" stroke-linejoin="round"/>
<path d="M391.24 192.831C391.24 192.831 386.865 190.823 387.609 197.343C387.757 198.627 390.146 200.528 390.146 200.528C390.146 200.528 389.53 202.45 388.394 202.45" fill="white"/>
<path d="M391.24 192.831C391.24 192.831 386.865 190.823 387.609 197.343C387.757 198.627 390.146 200.528 390.146 200.528C390.146 200.528 389.53 202.45 388.394 202.45" stroke="#160037" stroke-width="0.652293" stroke-linecap="round" stroke-linejoin="round"/>
<path d="M382.786 195.061C382.786 195.061 380.557 193.701 379.028 194.54C378.23 194.887 377.551 195.459 377.074 196.186" fill="white"/>
<path d="M382.786 195.061C382.786 195.061 380.557 193.701 379.028 194.54C378.23 194.887 377.551 195.459 377.074 196.186" stroke="#160037" stroke-width="0.652293" stroke-linecap="round" stroke-linejoin="round"/>
<path d="M381.512 198.819C381.682 199.604 381.512 200.306 381.055 200.401C380.599 200.497 380.153 199.923 379.993 199.137C379.834 198.352 379.993 197.651 380.46 197.556C380.928 197.46 381.353 198.023 381.512 198.819Z" fill="#160037"/>
<path d="M390.133 196.525C390.303 197.311 390.133 198.012 389.677 198.107C389.22 198.203 388.774 197.63 388.615 196.855C388.456 196.079 388.615 195.358 389.071 195.272C389.528 195.187 389.974 195.75 390.133 196.525Z" fill="#160037"/>
<path d="M368.878 181.99C368.101 182.751 367.563 183.721 367.327 184.783C366.691 187.027 366.508 189.376 366.786 191.692C367.066 194.009 367.801 196.247 368.952 198.277C369.66 198.19 370.377 198.219 371.075 198.362C371.819 198.553 372.774 199.827 373.125 200.486C373.432 201.187 373.608 201.939 373.645 202.704C373.475 200.687 373.316 198.68 373.146 196.663C373.032 195.857 373.068 195.036 373.252 194.243C373.772 192.586 373.199 188.679 373.348 185.186C377.754 190.569 384.156 189.613 386.28 189.433C389.465 189.167 392.183 185.908 392.013 183.582C391.843 181.258 391.217 175.269 380.716 174.653C378.402 174.407 376.07 174.894 374.048 176.044C373.407 176.466 372.863 177.02 372.451 177.667C372.039 178.315 371.77 179.043 371.659 179.803C371.511 180.779 371.882 180.864 371.139 181.342C370.396 181.82 369.61 181.363 368.878 181.99Z" fill="#160037" stroke="#160037" stroke-width="0.652293" stroke-linecap="round" stroke-linejoin="round"/>
<path d="M382.785 206.188C382.785 206.188 384.346 207.908 387.606 206.771L382.785 206.188Z" fill="white"/>
<path d="M382.785 206.188C382.785 206.188 384.346 207.908 387.606 206.771" stroke="#160037" stroke-width="0.652293" stroke-linecap="round" stroke-linejoin="round"/>
</g>
</g>
<defs>
<clipPath id="clip0_249_1186">
<rect width="457.91" height="463.2" fill="white"/>
</clipPath>
<clipPath id="clip1_249_1186">
<rect width="457.91" height="397.247" fill="white" transform="translate(0 32.9766)"/>
</clipPath>
</defs>
</svg>
