<svg width="35" height="38" viewBox="0 0 35 38" fill="none" xmlns="http://www.w3.org/2000/svg">
<path d="M24.6654 36.6667V30.2167C24.7279 29.422 24.6205 28.623 24.3504 27.873C24.0803 27.123 23.6536 26.4391 23.0987 25.8667C28.332 25.2834 33.832 23.3 33.832 14.2C33.8316 11.8731 32.9365 9.63537 31.332 7.95004C32.0918 5.91423 32.0381 3.66397 31.182 1.66673C31.182 1.66673 29.2154 1.08339 24.6654 4.13339C20.8454 3.09809 16.8187 3.09809 12.9987 4.13339C8.4487 1.08339 6.48203 1.66673 6.48203 1.66673C5.62597 3.66397 5.5723 5.91423 6.33203 7.95004C4.71556 9.64791 3.81957 11.9058 3.83203 14.25C3.83203 23.2834 9.33203 25.2667 14.5654 25.9167C14.017 26.4834 13.5942 27.159 13.3242 27.8999C13.0543 28.6408 12.9434 29.4302 12.9987 30.2167V36.6667M12.9987 31.6667C4.66536 34.1667 4.66536 27.5 1.33203 26.6667L12.9987 31.6667Z" stroke="currentColor" stroke-width="2" stroke-linecap="round" stroke-linejoin="round"/>
</svg>
