<svg width="14" height="15" viewBox="0 0 14 15" fill="none" xmlns="http://www.w3.org/2000/svg">
<path d="M7 0.5C3.13438 0.5 0 3.71563 0 7.67813C0 10.85 2.00625 13.5375 4.7875 14.4875C4.82651 14.496 4.86633 14.5002 4.90625 14.5C5.16563 14.5 5.26562 14.3094 5.26562 14.1438C5.26562 13.9719 5.25938 13.5219 5.25625 12.9219C5.0247 12.9762 4.78782 13.0045 4.55 13.0063C3.20313 13.0063 2.89687 11.9594 2.89687 11.9594C2.57812 11.1313 2.11875 10.9094 2.11875 10.9094C1.50938 10.4812 2.11562 10.4688 2.1625 10.4688H2.16563C2.86875 10.5312 3.2375 11.2125 3.2375 11.2125C3.5875 11.825 4.05625 11.9969 4.475 11.9969C4.75189 11.9913 5.02449 11.9274 5.275 11.8094C5.3375 11.3469 5.51875 11.0312 5.71875 10.85C4.16563 10.6688 2.53125 10.0531 2.53125 7.30312C2.53125 6.51875 2.80312 5.87813 3.25 5.37813C3.17812 5.19688 2.9375 4.46563 3.31875 3.47813C3.36989 3.46589 3.42245 3.46063 3.475 3.4625C3.72812 3.4625 4.3 3.55937 5.24375 4.21562C6.39048 3.89478 7.60327 3.89478 8.75 4.21562C9.69375 3.55937 10.2656 3.4625 10.5188 3.4625C10.5713 3.46063 10.6239 3.46589 10.675 3.47813C11.0563 4.46563 10.8156 5.19688 10.7437 5.37813C11.1906 5.88125 11.4625 6.52187 11.4625 7.30312C11.4625 10.0594 9.825 10.6656 8.26562 10.8438C8.51562 11.0656 8.74063 11.5031 8.74063 12.1719C8.74063 13.1313 8.73125 13.9062 8.73125 14.1406C8.73125 14.3094 8.82812 14.5 9.0875 14.5C9.12949 14.5002 9.17138 14.496 9.2125 14.4875C11.9969 13.5375 14 10.8469 14 7.67813C14 3.71563 10.8656 0.5 7 0.5Z" fill="#F3F4F6"/>
</svg>
