<svg width="40" height="40" viewBox="0 0 40 40" fill="none" xmlns="http://www.w3.org/2000/svg">
<g clip-path="url(#clip0_249_1412)">
<path d="M28.332 3.33301H11.6654C7.06296 3.33301 3.33203 7.06394 3.33203 11.6663V28.333C3.33203 32.9354 7.06296 36.6663 11.6654 36.6663H28.332C32.9344 36.6663 36.6654 32.9354 36.6654 28.333V11.6663C36.6654 7.06394 32.9344 3.33301 28.332 3.33301Z" stroke="currentColor" stroke-width="2" stroke-linecap="round" stroke-linejoin="round"/>
<path d="M26.6675 18.9495C26.8731 20.3366 26.6362 21.7532 25.9904 22.9979C25.3445 24.2426 24.3227 25.2519 23.0702 25.8823C21.8177 26.5128 20.3982 26.7322 19.0138 26.5094C17.6293 26.2866 16.3504 25.633 15.3589 24.6414C14.3673 23.6499 13.7137 22.371 13.4909 20.9866C13.2681 19.6021 13.4876 18.1827 14.118 16.9302C14.7485 15.6776 15.7578 14.6558 17.0025 14.0099C18.2471 13.3641 19.6637 13.1272 21.0508 13.3328C22.4657 13.5426 23.7755 14.202 24.7869 15.2134C25.7983 16.2248 26.4577 17.5346 26.6675 18.9495Z" stroke="currentColor" stroke-width="2" stroke-linecap="round" stroke-linejoin="round"/>
<path d="M29.168 10.833H29.1846" stroke="currentColor" stroke-width="2" stroke-linecap="round" stroke-linejoin="round"/>
</g>
<defs>
<clipPath id="clip0_249_1412">
<rect width="40" height="40" fill="white"/>
</clipPath>
</defs>
</svg>
