<svg width="40" height="40" viewBox="0 0 40 40" fill="none" xmlns="http://www.w3.org/2000/svg">
<path d="M26.668 13.333C29.3201 13.333 31.8637 14.3866 33.739 16.2619C35.6144 18.1373 36.668 20.6809 36.668 23.333V34.9997H30.0013V23.333C30.0013 22.4489 29.6501 21.6011 29.025 20.976C28.3999 20.3509 27.552 19.9997 26.668 19.9997C25.7839 19.9997 24.936 20.3509 24.311 20.976C23.6858 21.6011 23.3346 22.4489 23.3346 23.333V34.9997H16.668V23.333C16.668 20.6809 17.7216 18.1373 19.5969 16.2619C21.4722 14.3866 24.0158 13.333 26.668 13.333Z" stroke="white" stroke-width="2" stroke-linecap="round" stroke-linejoin="round"/>
<path d="M9.9987 15H3.33203V35H9.9987V15Z" stroke="white" stroke-width="2" stroke-linecap="round" stroke-linejoin="round"/>
<path d="M6.66536 9.99967C8.5063 9.99967 9.9987 8.50727 9.9987 6.66634C9.9987 4.82539 8.5063 3.33301 6.66536 3.33301C4.82442 3.33301 3.33203 4.82539 3.33203 6.66634C3.33203 8.50727 4.82442 9.99967 6.66536 9.99967Z" stroke="white" stroke-width="2" stroke-linecap="round" stroke-linejoin="round"/>
</svg>
