<svg width="16" height="17" viewBox="0 0 16 17" fill="none" xmlns="http://www.w3.org/2000/svg">
<path d="M12.25 0.5H3.75C1.67893 0.5 0 2.17893 0 4.25V12.75C0 14.8211 1.67893 16.5 3.75 16.5H12.25C14.3211 16.5 16 14.8211 16 12.75V4.25C16 2.17893 14.3211 0.5 12.25 0.5Z" fill="white"/>
<path d="M12.25 0.5H3.75C1.67893 0.5 0 2.17893 0 4.25V12.75C0 14.8211 1.67893 16.5 3.75 16.5H12.25C14.3211 16.5 16 14.8211 16 12.75V4.25C16 2.17893 14.3211 0.5 12.25 0.5Z" fill="#0A66C2"/>
<path d="M11.5447 14.1053H13.3741C13.4404 14.1053 13.5039 14.079 13.5508 14.0321C13.5977 13.9852 13.624 13.9217 13.6241 13.8554L13.625 9.99025C13.625 7.97006 13.1897 6.41725 10.8289 6.41725C9.93144 6.38388 9.08512 6.8465 8.62844 7.619C8.6262 7.62275 8.62281 7.62567 8.61876 7.62731C8.61471 7.62895 8.61024 7.62922 8.60603 7.62808C8.60181 7.62694 8.59808 7.62445 8.59542 7.62099C8.59275 7.61754 8.59129 7.6133 8.59125 7.60894V6.85375C8.59125 6.78745 8.56491 6.72386 8.51803 6.67697C8.47114 6.63009 8.40755 6.60375 8.34125 6.60375H6.60519C6.53888 6.60375 6.4753 6.63009 6.42841 6.67697C6.38153 6.72386 6.35519 6.78745 6.35519 6.85375V13.855C6.35519 13.9213 6.38153 13.9849 6.42841 14.0318C6.4753 14.0787 6.53888 14.105 6.60519 14.105H8.43444C8.50074 14.105 8.56433 14.0787 8.61121 14.0318C8.6581 13.9849 8.68444 13.9213 8.68444 13.855V10.3942C8.68444 9.41563 8.87006 8.46794 10.0833 8.46794C11.2792 8.46794 11.2947 9.58769 11.2947 10.4576V13.8553C11.2947 13.9216 11.321 13.9852 11.3679 14.0321C11.4148 14.079 11.4784 14.1053 11.5447 14.1053ZM2.375 4.22669C2.375 4.96825 2.98544 5.57837 3.727 5.57837C4.46837 5.57831 5.07844 4.96781 5.07844 4.22644C5.07831 3.48506 4.46819 2.875 3.72675 2.875C2.98512 2.875 2.375 3.48519 2.375 4.22669ZM2.80994 14.1053H4.64162C4.70793 14.1053 4.77152 14.079 4.8184 14.0321C4.86529 13.9852 4.89162 13.9216 4.89162 13.8553V6.85375C4.89162 6.78745 4.86529 6.72386 4.8184 6.67697C4.77152 6.63009 4.70793 6.60375 4.64162 6.60375H2.80994C2.74363 6.60375 2.68004 6.63009 2.63316 6.67697C2.58628 6.72386 2.55994 6.78745 2.55994 6.85375V13.8553C2.55994 13.9216 2.58628 13.9852 2.63316 14.0321C2.68004 14.079 2.74363 14.1053 2.80994 14.1053Z" fill="white"/>
</svg>
