<svg width="20" height="17" viewBox="0 0 20 17" fill="none" xmlns="http://www.w3.org/2000/svg">
<path d="M19.7973 2.4479C19.0634 2.77301 18.285 2.98641 17.4879 3.08101C18.3182 2.5834 18.9557 1.79542 19.2558 0.856548C18.4666 1.3249 17.6031 1.65488 16.7026 1.83224C15.9692 1.05084 14.9243 0.5625 13.7678 0.5625C11.5472 0.5625 9.74685 2.36277 9.74685 4.58317C9.74685 4.89835 9.78245 5.20518 9.85097 5.49953C6.50934 5.3318 3.54666 3.73111 1.56351 1.2985C1.21748 1.89234 1.0192 2.58309 1.0192 3.31986C1.0192 4.71484 1.72909 5.94547 2.80791 6.66654C2.1694 6.64654 1.54494 6.47409 0.986664 6.16357C0.986434 6.18041 0.986434 6.19726 0.986434 6.21417C0.986434 8.16227 2.37239 9.78738 4.2117 10.1568C3.61961 10.3178 2.99855 10.3414 2.39597 10.2257C2.90758 11.8231 4.39252 12.9855 6.15191 13.018C4.77583 14.0964 3.04209 14.7392 1.15838 14.7392C0.833783 14.7392 0.513783 14.7201 0.199219 14.683C1.97859 15.8238 4.09204 16.4895 6.36266 16.4895C13.7584 16.4895 17.8026 10.3627 17.8026 5.04947C17.8026 4.87507 17.7988 4.70168 17.791 4.52928C18.5781 3.96023 19.2575 3.25541 19.7973 2.4479Z" fill="#55ACEE"/>
</svg>
